<?xml version="1.0" encoding="UTF-8" standalone="no" ?>
<!DOCTYPE svg PUBLIC "-//W3C//DTD SVG 1.1//EN" "http://www.w3.org/Graphics/SVG/1.1/DTD/svg11.dtd">
<svg xmlns="http://www.w3.org/2000/svg" xmlns:xlink="http://www.w3.org/1999/xlink" version="1.1" width="1080" height="1080" viewBox="0 0 1080 1080" xml:space="preserve">
<desc>Created with Fabric.js 5.2.4</desc>
<defs>
</defs>
<rect x="0" y="0" width="100%" height="100%" fill="transparent"></rect>
<g transform="matrix(1 0 0 1 540 540)" id="bd232e6b-a9ae-4c88-b45b-1cf5b4667cd8"  >
</g>
<g transform="matrix(1 0 0 1 540 540)" id="2e492b5d-5f60-482c-bee5-47b30a597ad2"  >
<rect style="stroke: none; stroke-width: 1; stroke-dasharray: none; stroke-linecap: butt; stroke-dashoffset: 0; stroke-linejoin: miter; stroke-miterlimit: 4; fill: rgb(255,255,255); fill-rule: nonzero; opacity: 1; visibility: hidden;" vector-effect="non-scaling-stroke"  x="-540" y="-540" rx="0" ry="0" width="1080" height="1080" />
</g>
<g transform="matrix(0.38 0 0 0.38 587.03 457.71)"  >
<g style="" vector-effect="non-scaling-stroke"   >
		<g transform="matrix(9.77 0 0 9.77 0.56 0.3)"  >
<ellipse style="stroke: none; stroke-width: 1; stroke-dasharray: none; stroke-linecap: butt; stroke-dashoffset: 0; stroke-linejoin: miter; stroke-miterlimit: 4; fill: rgb(137,147,190); fill-rule: evenodd; opacity: 1;" vector-effect="non-scaling-stroke"  cx="0" cy="0" rx="128" ry="66.63" />
</g>
		<g transform="matrix(9.77 0 0 9.77 4.69 -51.17)"  >
<path style="stroke: none; stroke-width: 1; stroke-dasharray: none; stroke-linecap: butt; stroke-dashoffset: 0; stroke-linejoin: miter; stroke-miterlimit: 4; fill: rgb(35,37,49); fill-rule: evenodd; opacity: 1;" vector-effect="non-scaling-stroke"  transform=" translate(-128.44, -61.37)" d="M 35.945 106.082 L 49.973 35.068 L 82.41 35.068 C 96.437 35.945 103.451 42.958 103.451 55.233 C 103.451 76.274 86.794 88.548 71.889 87.67099999999999 L 56.11 87.67099999999999 L 52.603 106.082 L 35.945 106.082 z M 59.616 74.52099999999999 L 64 48.219 L 75.397 48.219 C 81.534 48.219 85.917 50.849000000000004 85.917 56.109 C 85.041 71.014 78.027 73.644 70.137 74.521 L 59.617000000000004 74.521 z M 100.192 87.671 L 114.219 16.658 L 130.877 16.658 L 127.37 35.068 L 143.15 35.068 C 157.178 35.945 162.43800000000002 42.958 160.685 51.726 L 154.548 87.67099999999999 L 137.014 87.67099999999999 L 143.151 55.23299999999999 C 144.02700000000002 50.84899999999999 144.02700000000002 48.21899999999999 137.89100000000002 48.21899999999999 L 124.74 48.21899999999999 L 116.85 87.67099999999999 L 100.192 87.67099999999999 z M 153.425 106.082 L 167.452 35.068 L 199.89 35.068 C 213.91799999999998 35.945 220.932 42.958 220.932 55.233 C 220.932 76.274 204.274 88.548 189.36999999999998 87.67099999999999 L 173.58899999999997 87.67099999999999 L 170.08199999999997 106.082 L 153.42499999999995 106.082 z M 177.09500000000003 74.52099999999999 L 181.47900000000004 48.21899999999999 L 192.87700000000004 48.21899999999999 C 199.01400000000004 48.21899999999999 203.39700000000005 50.84899999999999 203.39700000000005 56.10899999999999 C 202.52100000000004 71.01399999999998 195.50700000000006 73.64399999999999 187.61700000000005 74.52099999999999 L 177.09600000000006 74.52099999999999 z" stroke-linecap="round" />
</g>
</g>
</g>
</svg>